<svg width="405" height="532" viewBox="0 0 405 532" fill="none" xmlns="http://www.w3.org/2000/svg">
<path fill-rule="evenodd" clip-rule="evenodd" d="M-103 439.209C-7.33914 439.209 70.2093 361.661 70.2093 266C70.2093 170.339 -7.33914 92.7907 -103 92.7907C-198.661 92.7907 -276.209 170.339 -276.209 266C-276.209 361.661 -198.661 439.209 -103 439.209ZM-103 532C43.9077 532 163 412.908 163 266C163 119.092 43.9077 0 -103 0C-249.908 0 -369 119.092 -369 266C-369 412.908 -249.908 532 -103 532Z" fill="#FB575C"/>
<path fill-rule="evenodd" clip-rule="evenodd" d="M378 68.4815C385.998 68.4815 392.481 61.9979 392.481 54C392.481 46.0021 385.998 39.5185 378 39.5185C370.002 39.5185 363.519 46.0021 363.519 54C363.519 61.9979 370.002 68.4815 378 68.4815ZM378 77C390.703 77 401 66.7025 401 54C401 41.2975 390.703 31 378 31C365.297 31 355 41.2975 355 54C355 66.7025 365.297 77 378 77Z" fill="#A82682"/>
<path fill-rule="evenodd" clip-rule="evenodd" d="M394 95.9259C397.825 95.9259 400.926 92.8251 400.926 89C400.926 85.1749 397.825 82.0741 394 82.0741C390.175 82.0741 387.074 85.1749 387.074 89C387.074 92.8251 390.175 95.9259 394 95.9259ZM394 100C400.075 100 405 95.0751 405 89C405 82.9249 400.075 78 394 78C387.925 78 383 82.9249 383 89C383 95.0751 387.925 100 394 100Z" fill="#DD3A3F"/>
</svg>